<?xml version="1.0" standalone="no"?>
<!DOCTYPE svg PUBLIC "-//W3C//DTD SVG 20010904//EN"
 "http://www.w3.org/TR/2001/REC-SVG-20010904/DTD/svg10.dtd">
<svg version="1.0" xmlns="http://www.w3.org/2000/svg"
 width="260.000000pt" height="260.000000pt" viewBox="0 0 260.000000 260.000000"
 preserveAspectRatio="xMidYMid meet">
<metadata>
Created by potrace 1.11, written by Peter Selinger 2001-2013
</metadata>
<g transform="translate(0.000000,260.000000) scale(0.100000,-0.100000)"
fill="#000000" stroke="none">
<path d="M1110 2122 c-148 -21 -374 -115 -484 -202 -242 -192 -393 -384 -471
-600 -15 -41 -29 -86 -31 -100 -3 -14 -9 -41 -13 -60 -25 -112 -3 -271 51
-380 61 -121 201 -231 348 -274 201 -59 469 -29 696 79 171 82 361 236 496
404 58 72 420 611 652 971 103 161 105 165 80 168 -20 3 -138 -13 -174 -23 -3
-1 -18 -5 -35 -10 -42 -11 -158 -69 -214 -107 -71 -48 -164 -147 -216 -229
-131 -205 -384 -576 -443 -650 -132 -166 -288 -308 -412 -377 -140 -78 -286
-82 -370 -10 -65 55 -101 166 -95 292 5 111 10 140 41 236 83 250 277 532 442
638 111 72 244 82 326 25 56 -39 121 -141 153 -240 15 -46 30 -83 33 -83 7 0
204 281 208 297 6 22 -139 158 -198 186 -100 47 -249 66 -370 49z"/>
<path d="M1934 1013 c-50 -65 -97 -116 -162 -178 l-62 -60 17 -32 c94 -174
234 -264 408 -264 83 0 108 5 180 32 52 19 129 73 167 116 18 19 16 19 -90 19
-142 0 -199 19 -267 88 -41 41 -58 71 -92 156 -23 58 -45 117 -49 133 -3 15
-9 27 -13 27 -4 0 -21 -17 -37 -37z"/>
</g>
</svg>
